<?xml version="1.0" standalone="no"?>
<!DOCTYPE svg PUBLIC "-//W3C//DTD SVG 20010904//EN"
 "http://www.w3.org/TR/2001/REC-SVG-20010904/DTD/svg10.dtd">
<svg version="1.0" xmlns="http://www.w3.org/2000/svg"
 width="2000.000000pt" height="2000.000000pt" viewBox="0 0 2000.000000 2000.000000"
 preserveAspectRatio="xMidYMid meet">
<metadata>
Created by potrace 1.11, written by Peter Selinger 2001-2013
</metadata>
<g transform="translate(0.000000,2000.000000) scale(0.100000,-0.100000)"
fill="#000000" stroke="none">
<path d="M9735 18944 c-1320 -55 -2536 -363 -3672 -932 -883 -442 -1632 -981
-2329 -1677 -462 -461 -836 -919 -1179 -1445 -161 -246 -217 -340 -543 -920
-272 -484 -514 -1040 -702 -1615 -81 -249 -102 -342 -102 -440 0 -190 94 -293
314 -345 46 -10 290 -48 543 -84 253 -36 1474 -210 2714 -386 1239 -176 2293
-323 2341 -327 162 -11 284 30 380 126 31 31 93 111 139 179 270 401 592 701
991 922 143 79 294 144 503 216 226 77 274 100 344 167 64 60 105 140 132 258
11 46 194 1306 407 2799 432 3028 417 2904 361 3025 -15 33 -42 75 -60 93
l-31 32 23 171 c12 94 20 174 16 177 -7 7 -453 11 -590 6z"/>
<path d="M12241 18513 c-29 -206 -27 -201 -71 -223 -95 -49 -149 -155 -185
-365 -24 -145 -773 -5423 -780 -5500 -14 -154 40 -313 136 -399 28 -25 108
-85 178 -132 329 -225 580 -473 783 -774 149 -221 248 -425 353 -732 37 -106
80 -215 95 -243 64 -111 162 -179 313 -215 45 -11 1302 -194 2792 -407 2503
-357 2721 -387 2850 -387 130 -1 144 1 195 25 140 65 188 170 197 429 16 461
-68 1266 -193 1850 -46 216 -202 837 -260 1037 -337 1166 -913 2263 -1676
3191 -213 258 -325 380 -612 667 -284 284 -519 493 -798 712 -814 638 -1711
1120 -2688 1444 -207 68 -579 179 -603 179 -2 0 -14 -71 -26 -157z"/>
<path d="M1110 10232 c0 -33 -3 -107 -7 -166 l-6 -107 -47 -24 c-90 -46 -147
-139 -170 -277 -19 -121 -8 -547 25 -913 176 -1953 961 -3770 2264 -5240 151
-171 510 -534 686 -694 935 -853 2046 -1505 3249 -1906 341 -114 400 -129 516
-129 82 -1 103 3 150 25 97 46 150 119 190 260 11 41 67 404 125 809 451 3175
674 4755 680 4815 12 128 -21 257 -87 339 l-31 39 17 131 c9 72 19 138 22 147
3 12 -20 30 -88 69 -571 324 -1017 815 -1271 1400 -74 170 -128 329 -167 490
-19 74 -34 136 -34 137 -1 2 -1084 156 -3736 533 -894 127 -1764 251 -1933
276 -170 24 -317 44 -328 44 -17 0 -19 -7 -19 -58z"/>
<path d="M12641 8556 c-124 -224 -294 -448 -491 -646 -253 -255 -497 -428
-821 -584 -197 -94 -342 -147 -549 -200 l-165 -42 -22 -149 c-20 -128 -26
-150 -45 -164 -112 -78 -168 -184 -203 -381 -8 -47 -186 -1289 -396 -2760
-420 -2943 -410 -2858 -361 -2980 31 -79 73 -125 145 -159 90 -42 155 -51 391
-51 507 0 1104 63 1660 175 1477 297 2865 963 4026 1930 223 186 318 273 569
520 813 801 1437 1692 1908 2725 206 451 443 1118 473 1329 18 129 -19 253
-96 320 l-37 33 43 155 c23 85 39 157 37 160 -6 5 -200 33 -3717 533 -1202
171 -2211 314 -2242 318 l-56 9 -51 -91z"/>
</g>
</svg>
